<?xml version="1.0" encoding="UTF-8" standalone="no"?>
<!-- Created with Inkscape (http://www.inkscape.org/) -->

<svg
   xmlns:dc="http://purl.org/dc/elements/1.1/"
   xmlns:cc="http://creativecommons.org/ns#"
   xmlns:rdf="http://www.w3.org/1999/02/22-rdf-syntax-ns#"
   xmlns:svg="http://www.w3.org/2000/svg"
   xmlns="http://www.w3.org/2000/svg"
   xmlns:sodipodi="http://sodipodi.sourceforge.net/DTD/sodipodi-0.dtd"
   xmlns:inkscape="http://www.inkscape.org/namespaces/inkscape"
   width="25.849686mm"
   height="35.489948mm"
   viewBox="0 0 25.849686 35.489948"
   version="1.1"
   id="svg26"
   inkscape:version="0.92.2 (5c3e80d, 2017-08-06)"
   sodipodi:docname="a.svg">
  <defs
     id="defs20" />
  <sodipodi:namedview
     id="base"
     pagecolor="#ffffff"
     bordercolor="#666666"
     borderopacity="1.0"
     inkscape:pageopacity="0.0"
     inkscape:pageshadow="2"
     inkscape:zoom="0.9983453"
     inkscape:cx="80.595425"
     inkscape:cy="61.428213"
     inkscape:document-units="mm"
     inkscape:current-layer="layer1"
     showgrid="false"
     inkscape:window-width="636"
     inkscape:window-height="716"
     inkscape:window-x="3840"
     inkscape:window-y="720"
     inkscape:window-maximized="0"
     fit-margin-top="0"
     fit-margin-left="0"
     fit-margin-right="0"
     fit-margin-bottom="0" />
  <metadata
     id="metadata23">
    <rdf:RDF>
      <cc:Work
         rdf:about="">
        <dc:format>image/svg+xml</dc:format>
        <dc:type
           rdf:resource="http://purl.org/dc/dcmitype/StillImage" />
        <dc:title></dc:title>
      </cc:Work>
    </rdf:RDF>
  </metadata>
  <g
     inkscape:label="レイヤー 1"
     inkscape:groupmode="layer"
     id="layer1"
     transform="translate(-5.6941174,-9.7004532)">
    <path
       style="fill:#000000;fill-opacity:1;stroke:#000000;stroke-width:0.26458332;stroke-opacity:1"
       id="path40"
       d="m 5.8302127,19.516984 c 1.2546111,-0.52763 2.4548656,-1.171291 3.6612227,-1.798654 0.9911926,-0.477632 1.9738126,-0.971637 2.9849086,-1.40571 0.911978,-0.404237 1.849276,-0.745257 2.778824,-1.105112 0.917965,-0.397128 1.883342,-0.66235 2.818691,-1.012671 0.947067,-0.315954 1.883376,-0.66446 2.81448,-1.025041 0.959464,-0.331058 1.913819,-0.678271 2.880746,-0.987421 0.927633,-0.356307 1.869647,-0.671437 2.809123,-0.994841 0.928079,-0.339095 1.869879,-0.641741 2.811989,-0.939763 1.736399,-0.5965675 1.008427,-1.2973342 0.479499,3.748061 -0.0105,0.100306 -0.198321,0.03732 -0.296333,0.06109 -0.115372,0.02798 -0.228995,0.06272 -0.343493,0.09408 -0.94941,0.29382 -1.84241,0.731355 -2.719663,1.191948 -0.905062,0.539702 -1.785738,1.136348 -2.604458,1.800721 -0.833661,0.618037 -1.527102,1.391054 -2.152567,2.213135 -0.61397,0.824286 -1.065033,1.738096 -1.493574,2.666785 -0.424441,0.903954 -0.668274,1.867837 -0.879091,2.839409 -0.146881,1.015137 -0.272492,2.034093 -0.391199,3.053459 -0.104133,0.998268 -0.117842,2.0027 -0.12906,3.005383 -0.23771,-6.822233 0.07981,-2.335162 0.306117,-0.750218 0.143719,0.97935 0.422402,1.930014 0.776438,2.852079 0.358072,0.918988 0.946559,1.699731 1.628755,2.399811 0.701405,0.684889 1.532469,1.200837 2.362785,1.710581 0.882294,0.468876 1.786831,0.893699 2.667135,1.366975 0.794436,0.449069 1.616602,0.846172 2.426439,1.266217 0.555259,0.350755 1.159205,0.609433 1.739818,0.912214 0.208732,0.119052 0.426661,0.219488 0.639537,0.330708 0,0 -0.205197,3.947829 -0.205197,3.947829 v 0 c -0.205259,-0.129484 -0.425345,-0.214521 -0.635757,-0.33565 -0.559194,-0.337672 -1.191699,-0.545473 -1.729558,-0.924362 -0.806153,-0.433646 -1.634741,-0.824531 -2.431176,-1.276299 -0.880275,-0.486955 -1.790839,-0.91422 -2.687603,-1.369121 -0.850777,-0.524661 -1.716309,-1.030023 -2.454504,-1.713299 -0.724386,-0.705808 -1.377195,-1.481592 -1.786421,-2.418204 -0.386529,-0.924409 -0.691747,-1.876587 -0.8706,-2.864438 -0.323401,-2.344036 -0.603901,-4.592738 -0.354385,-7.011119 0.01797,-1.006462 0.04459,-2.014572 0.170164,-3.014519 0.130473,-1.020573 0.225503,-2.04817 0.432141,-3.056705 0.237335,-0.977619 0.510957,-1.944047 0.961524,-2.848914 0.445368,-0.939842 0.943445,-1.852389 1.582214,-2.677769 0.663592,-0.821892 1.391736,-1.588317 2.245419,-2.217384 0.851926,-0.656802 1.73798,-1.280839 2.67829,-1.80468 0.904551,-0.468115 1.827992,-0.908102 2.802698,-1.211797 0.354926,-0.09732 0.671269,-0.187586 0.674876,-0.167222 0.683162,3.857422 1.506273,3.564147 -0.289357,4.128736 -0.939736,0.294549 -1.878052,0.596369 -2.802175,0.937082 -0.942006,0.321591 -1.882369,0.646498 -2.815905,0.991792 -0.957913,0.31437 -1.908162,0.652117 -2.858971,0.987255 -0.933378,0.359826 -1.872127,0.706784 -2.819876,1.026803 -0.936335,0.343204 -1.897805,0.616665 -2.814471,1.013404 -0.927332,0.350796 -1.853827,0.704773 -2.762342,1.102598 -0.999221,0.434146 -1.975192,0.918667 -2.9581378,1.388209 -1.2173958,0.62812 -2.4362039,1.253395 -3.6800409,1.828111 0,0 -0.1679186,-3.933568 -0.1679186,-3.933568 z"
       inkscape:connector-curvature="0" />
  </g>
</svg>
